HIERARCHY
ROOT Hips
{
  OFFSET 0.14626 102.729 -204.226
  CHANNELS 6 Xposition Yposition Zposition Zrotation Xrotation Yrotation
  JOINT RightUpLeg
  {
    OFFSET -8.9458 -8.66707 0.101652
    CHANNELS 3 Zrotation Xrotation Yrotation
    JOINT RightLeg
    {
      OFFSET 0 -44.4227 1.3727
      CHANNELS 3 Zrotation Xrotation Yrotation
      JOINT RightFoot
      {
        OFFSET 0.253549 -42.0924 -1.46059
        CHANNELS 3 Zrotation Xrotation Yrotation
        JOINT RightToes
        {
          OFFSET 0.04 -4.41509 8.4991
          CHANNELS 3 Zrotation Xrotation Yrotation
          End Site
          {
            OFFSET -0.08 -0.137448 9.77979
          }
        }
      }
    }
  }
  JOINT Spine
  {
    OFFSET 0 11.8905 0
    CHANNELS 3 Zrotation Xrotation Yrotation
    JOINT Spine1
    {
      OFFSET 0 25.6574 0.127663
      CHANNELS 3 Zrotation Xrotation Yrotation
      JOINT HEad
      {
        OFFSET 0 8.73416 0.011341
        CHANNELS 3 Zrotation Xrotation Yrotation
        End Site
        {
          OFFSET -0.29 12.7742 2.51395
        }
      }
      JOINT LeftShoulder1
      {
        OFFSET 8.99 -0.362252 -0.22
        CHANNELS 3 Zrotation Xrotation Yrotation
        JOINT LeftArm
        {
          OFFSET 10.2827 -0.00338 0.322123
          CHANNELS 3 Zrotation Xrotation Yrotation
          JOINT LeftForeArm
          {
            OFFSET 32.7669 0.099144 -1.42434
            CHANNELS 3 Zrotation Xrotation Yrotation
            JOINT LeftHand
            {
              OFFSET 27.5643 0.085362 1.02216
              CHANNELS 3 Zrotation Xrotation Yrotation
              End Site
              {
                OFFSET 16.7443 -0.6 1.50291
              }
            }
          }
        }
      }
      JOINT RightShoulder
      {
        OFFSET -8.99 -0.362252 -0.22
        CHANNELS 3 Zrotation Xrotation Yrotation
        JOINT RightArm
        {
          OFFSET -10.2827 -0.00338 0.322123
          CHANNELS 3 Zrotation Xrotation Yrotation
          JOINT RightForeArm
          {
            OFFSET -32.8971 0.099144 -1.42434
            CHANNELS 3 Zrotation Xrotation Yrotation
            JOINT RightHand
            {
              OFFSET -27.4921 0.085362 1.02216
              CHANNELS 3 Zrotation Xrotation Yrotation
              End Site
              {
                OFFSET -16.6312 -0.6 1.50291
              }
            }
          }
        }
      }
    }
  }
  JOINT LeftUpLeg
  {
    OFFSET 8.9458 -8.66707 0.101652
    CHANNELS 3 Zrotation Xrotation Yrotation
    JOINT LeftLeg
    {
      OFFSET 0 -44.4227 1.3727
      CHANNELS 3 Zrotation Xrotation Yrotation
      JOINT LeftFoot
      {
        OFFSET -0.253549 -42.0924 -1.46059
        CHANNELS 3 Zrotation Xrotation Yrotation
        JOINT LeftToes
        {
          OFFSET -0.04 -4.41509 8.4991
          CHANNELS 3 Zrotation Xrotation Yrotation
          End Site
          {
            OFFSET 0.08 -0.047448 9.77979
          }
        }
      }
    }
  }
}
MOTION
Frames:	8
Frame Time:	0.0166667
0.812659 102.524 -206.393 -0.378627 0.0115697 5.37305 1.17878 -17.4783 -0.229766 -0.159703 19.5735 -16.7605 1.00898 -6.44154 -0.199581 0.0462048 0.000533964 0.662642 0.508622 3.96458 -0.888831 -3.30295 -5.76731 -0.304016 7.00219 1.75799 -7.42127 -3.23025e-016 -7.95139e-016 -1.59028e-015 -84.5888 -12.156 -16.2982 -20.6646 14.5768 -12.8628 0.368473 9.90896 -0.00117927 9.09278 -1.31643 -11.4642 82.3799 -29.8594 6.06026 19.8304 12.3875 0.595813 -0.369625 9.91382 0.00119887 -0.583381 2.60881 -0.296247 -2.58992 32.695 21.3149 -15.4966 -3.06424 -0.0698132 -3.17101e-012 -5.27018e-012 7.82416e-012 
0.473557 102.638 -205.29 -0.3827 -0.0332586 5.32915 1.46016 -16.7053 0.0958989 -0.0214561 19.5411 -17.0657 1.02184 -7.0595 -0.199836 0.0365065 -0.056763 0.689552 0.59352 4.02325 -0.909068 -3.37044 -5.92891 -0.314939 7.12787 1.44388 -7.4655 -4.96962e-017 0 7.95139e-016 -84.3115 -12.6333 -15.9848 -20.5996 14.5864 -12.9543 0.368473 9.90896 -0.00117927 8.95813 -1.31623 -11.523 82.7487 -29.634 6.11879 19.8993 12.3682 0.498425 -0.369625 9.91382 0.00119887 -0.118171 0.554785 0.299237 -2.86006 36.6068 22.5875 -15.1441 -1.1728 0.18097 -0.41522 5.10683 0.705425 
0.14626 102.729 -204.226 -0.394297 -0.078714 5.27731 1.73897 -15.9911 0.443348 0.126241 19.5705 -17.3157 1.02167 -7.67214 -0.200113 0.065985 -0.224725 0.512203 0.695112 4.06316 -0.930431 -3.4275 -6.00839 -0.322216 7.20839 1.13959 -7.50274 -2.48481e-017 7.95139e-016 7.95139e-016 -84.0526 -13.1238 -15.7289 -20.5287 14.5956 -13.0435 0.368473 9.90896 -0.00117927 8.81217 -1.29999 -11.4863 83.1537 -29.3656 6.25685 19.9701 12.3551 0.435959 -0.369625 9.91382 0.00119887 0.326458 -1.58825 0.875114 -3.23936 40.5478 23.755 -14.7334 0.542707 0.400237 -1.12265 9.60763 1.80457 
-0.150013 102.752 -203.269 -0.430102 -0.122945 5.20469 2.03205 -15.4567 0.850155 0.300339 19.7926 -17.3504 0.981594 -8.26014 -0.2004 0.225164 -0.777857 -0.397215 0.848426 4.04823 -0.954995 -3.45017 -5.86393 -0.319359 7.12397 0.87034 -7.5272 -1.98785e-016 0 -7.95139e-016 -83.8481 -13.6326 -15.6311 -20.4475 14.604 -13.126 0.368473 9.90896 -0.00117927 8.64074 -1.23675 -11.1703 83.6328 -28.9834 6.59293 20.0553 12.3652 0.507447 -0.369625 9.91382 0.00119887 0.652561 -4.02293 1.45739 -3.39775 44.8415 23.9836 -14.0475 1.9305 0.547723 -2.65071 12.7707 4.29175 
-0.425701 102.752 -202.369 -0.470018 -0.174002 5.11806 2.31794 -14.9757 1.30244 0.490332 20.0652 -17.4309 0.930122 -8.86014 -0.200716 0.360407 -1.335 -1.2727 1.01484 4.01157 -0.981015 -3.46829 -5.59244 -0.311203 7.05604 0.59942 -7.52741 9.93923e-017 -7.95139e-016 -0 -83.6941 -14.1906 -15.6219 -20.3468 14.6113 -13.2057 0.368473 9.90896 -0.00117927 8.43895 -1.15464 -10.7445 84.2059 -28.5262 7.08396 20.1243 12.3727 0.555395 -0.369625 9.91382 0.00119887 0.903435 -6.49555 1.90085 -3.39155 48.957 24.1582 -13.4104 2.74214 0.619988 -4.25354 14.3115 6.76131 
-0.690189 102.759 -201.498 -0.515122 -0.233596 5.03021 2.59254 -14.4471 1.86313 0.72411 20.2508 -17.9151 0.889503 -9.51671 -0.201089 0.354956 -1.51194 -1.31186 1.16177 3.97116 -1.00402 -3.48922 -5.24711 -0.300067 7.22658 0.261401 -7.49002 -1.98785e-016 0 -7.95139e-016 -83.5934 -14.8233 -15.6539 -20.2171 14.6223 -13.3124 0.368473 9.90896 -0.00117927 8.21695 -1.07654 -10.3438 84.9112 -28.0413 7.742 20.1217 12.3472 0.387456 -0.369625 9.91382 0.00119887 1.05226 -8.82296 2.06152 -3.43948 52.3818 25.2356 -13.1647 2.53714 0.585506 -4.8813 13.3137 7.81798 
-0.927415 102.762 -200.66 -0.518772 -0.318907 4.91021 2.81057 -13.9156 2.33676 0.914249 20.4591 -18.3545 0.851605 -10.1868 -0.201498 0.319246 -1.59474 -1.14963 1.30629 3.93628 -1.03427 -3.55666 -4.81721 -0.28704 7.39532 -0.0324559 -7.41524 -4.72114e-016 0 -7.95139e-016 -83.5577 -15.5515 -15.7617 -20.0559 14.6222 -13.3638 0.368473 9.90896 -0.00117927 7.91819 -0.988018 -9.88807 85.7275 -27.4307 8.51798 20.1334 12.3189 0.207237 -0.369625 9.91382 0.00119887 1.07758 -11.0029 1.94169 -3.79168 55.1119 26.6822 -13.0503 1.74002 0.486819 -4.95298 11.1807 8.15771 
-1.11727 102.76 -199.856 -0.409827 -0.465297 4.71172 2.90665 -13.3971 2.49054 0.956859 20.8 -18.3181 0.806151 -10.8417 -0.201926 0.320533 -1.77074 -1.21528 1.4512 3.92702 -1.085 -3.73966 -4.26813 -0.27334 7.34734 -0.198635 -7.29977 -4.84538e-016 1.98785e-016 -0 -83.6405 -16.4625 -16.0244 -19.8208 14.5875 -13.2384 0.368473 9.90896 -0.00117927 7.47467 -0.875447 -9.30679 86.6526 -26.5491 9.40273 20.26 12.3102 0.177318 -0.369625 9.91382 0.00119887 0.914721 -12.954 1.43342 -4.60185 56.9965 28.0777 -12.8962 0.545058 0.34694 -4.78095 9.11096 8.0504 
